<svg width="25" height="25" viewBox="0 0 25 25" fill="none" xmlns="http://www.w3.org/2000/svg">
<path d="M12.5 24.2188C18.9721 24.2188 24.2188 18.9721 24.2188 12.5C24.2188 6.02791 18.9721 0.78125 12.5 0.78125C6.02791 0.78125 0.78125 6.02791 0.78125 12.5C0.78125 18.9721 6.02791 24.2188 12.5 24.2188Z" fill="#ED4C5C"/>
<path d="M8.59375 11.0938L11.7188 13.2812L10.5469 9.6875L13.6719 7.42188H9.80469L8.59375 3.90625L7.42188 7.42188H3.51562L6.64062 9.6875L5.46875 13.2812L8.59375 11.0938ZM13.7891 13.7891L12.8906 13.9844L13.75 14.3359V15.2344L14.3359 14.5703L15.1953 14.8828L14.6875 14.1406L15.2344 13.4375L14.3359 13.6328L13.7891 12.8906V13.7891ZM15.1172 11.1328L14.4531 11.7188L15.3516 11.6406L15.7422 12.5L15.8984 11.6016L16.7969 11.5234L16.0156 11.0547L16.2109 10.1562L15.5469 10.7422L14.7656 10.2734L15.1172 11.1328ZM15.3516 8.08594L15.625 8.98438L15.8984 8.125H16.7969L16.0938 7.57812L16.3672 6.67969L15.625 7.22656L14.9219 6.64062L15.1953 7.53906L14.4531 8.04688L15.3516 8.08594ZM13.7891 4.96094V5.85938L14.3359 5.11719L15.2344 5.3125L14.6875 4.60938L15.1953 3.86719L14.3359 4.21875L13.75 3.51562V4.41406L12.8906 4.76562L13.7891 4.96094Z" fill="#FFE62E"/>
</svg>
