<svg width="19" height="15" viewBox="0 0 19 15" fill="none" xmlns="http://www.w3.org/2000/svg">
<path d="M15.675 13.125H3.325C3.06375 13.125 2.85 13.3359 2.85 13.5938V14.5312C2.85 14.7891 3.06375 15 3.325 15H15.675C15.9362 15 16.15 14.7891 16.15 14.5312V13.5938C16.15 13.3359 15.9362 13.125 15.675 13.125ZM17.575 3.75C16.7883 3.75 16.15 4.37988 16.15 5.15625C16.15 5.36426 16.1975 5.55762 16.2806 5.73633L14.1312 7.00781C13.6741 7.27734 13.0833 7.125 12.8191 6.66797L10.3995 2.49023C10.7172 2.23242 10.925 1.8457 10.925 1.40625C10.925 0.629883 10.2867 0 9.5 0C8.71328 0 8.075 0.629883 8.075 1.40625C8.075 1.8457 8.28281 2.23242 8.60047 2.49023L6.18094 6.66797C5.91672 7.125 5.32297 7.27734 4.86875 7.00781L2.72234 5.73633C2.8025 5.56055 2.85297 5.36426 2.85297 5.15625C2.85297 4.37988 2.21469 3.75 1.42797 3.75C0.64125 3.75 0 4.37988 0 5.15625C0 5.93262 0.638281 6.5625 1.425 6.5625C1.50219 6.5625 1.57938 6.55078 1.65359 6.53906L3.8 12.1875H15.2L17.3464 6.53906C17.4206 6.55078 17.4978 6.5625 17.575 6.5625C18.3617 6.5625 19 5.93262 19 5.15625C19 4.37988 18.3617 3.75 17.575 3.75Z" fill="#E5B560"/>
</svg>
