<svg width="25" height="25" viewBox="0 0 25 25" fill="none" xmlns="http://www.w3.org/2000/svg">
<path d="M8.59375 23.5547V18.1641L4.57031 21.1328C5.70312 22.1875 7.07031 23.0078 8.59375 23.5547ZM16.4062 23.5547C17.9297 23.0078 19.2969 22.1875 20.4297 21.1328L16.4062 18.125V23.5547ZM1.44531 16.4062C1.5625 16.7969 1.71875 17.1484 1.91406 17.5391L3.4375 16.4062H1.44531ZM21.5625 16.4062L23.0859 17.5391C23.2422 17.1875 23.3984 16.7969 23.5547 16.4062H21.5625Z" fill="#2A5F9E"/>
<path d="M9.17969 14.8438H1.01562C1.13281 15.3906 1.28906 15.8984 1.44531 16.4062H3.4375L1.91406 17.5391C2.22656 18.2031 2.57812 18.7891 3.00781 19.375L7.03125 16.4062H8.59375V17.1875L4.02344 20.5469L4.57031 21.0937L8.59375 18.1641V23.5547C9.10156 23.75 9.60937 23.8672 10.1562 23.9844V14.8438H9.17969ZM23.9844 14.8438H14.8438V23.9844C15.3906 23.8672 15.8984 23.7109 16.4062 23.5547V18.1641L20.4297 21.0937C20.9766 20.5859 21.4453 20.0391 21.9141 19.4531L17.7344 16.4062H20.3906L22.7734 18.1641C22.8906 17.9687 23.0078 17.7344 23.0859 17.5391L21.5625 16.4062H23.5547C23.7109 15.8984 23.8672 15.3906 23.9844 14.8438Z" fill="white"/>
<path d="M3.00781 19.375C3.32031 19.8047 3.63281 20.1953 3.98438 20.5859L8.59375 17.2266V16.4453H7.03125L3.00781 19.375ZM17.7734 16.4062L21.9531 19.4531C22.1094 19.2578 22.2266 19.0625 22.3828 18.8672C22.4219 18.8281 22.4219 18.7891 22.4609 18.7891C22.5781 18.5937 22.7344 18.3594 22.8516 18.1641L20.3906 16.4062H17.7734Z" fill="#ED4C5C"/>
<path d="M16.4062 1.44531V6.83594L20.4297 3.86719C19.2969 2.8125 17.9297 1.99219 16.4062 1.44531ZM8.59375 1.44531C7.07031 1.99219 5.70312 2.8125 4.57031 3.86719L8.59375 6.875V1.44531ZM23.5547 8.59375C23.4375 8.20312 23.2812 7.85156 23.0859 7.46094L21.5625 8.59375H23.5547ZM3.4375 8.59375L1.91406 7.46094C1.75781 7.85156 1.60156 8.20312 1.44531 8.59375H3.4375Z" fill="#2A5F9E"/>
<path d="M15.8203 10.1562H23.9453C23.8281 9.60938 23.6719 9.10156 23.5156 8.59375H21.5234L23.0469 7.46094C22.7344 6.79688 22.3828 6.21094 21.9531 5.625L17.9688 8.59375H16.4063V7.8125L20.9766 4.45312L20.4297 3.90625L16.4063 6.83594V1.44531C15.8984 1.25 15.3906 1.13281 14.8438 1.01562V10.1562H15.8203ZM1.01562 10.1562H10.1562V1.01562C9.60938 1.13281 9.10156 1.28906 8.59375 1.44531V6.83594L4.57031 3.90625C4.02344 4.41406 3.55469 4.96094 3.08594 5.54688L7.26562 8.59375H4.60938L2.22656 6.83594C2.10938 7.03125 1.99219 7.26562 1.91406 7.46094L3.4375 8.59375H1.44531C1.28906 9.10156 1.13281 9.60938 1.01562 10.1562Z" fill="white"/>
<path d="M21.9922 5.625C21.6797 5.19531 21.3672 4.80469 21.0156 4.41406L16.4063 7.77344V8.55469H17.9688L21.9922 5.625ZM7.22656 8.59375L3.08594 5.54687C2.92969 5.74219 2.8125 5.9375 2.65625 6.13281C2.61719 6.17187 2.61719 6.21094 2.57812 6.21094C2.46094 6.40625 2.30469 6.64062 2.1875 6.83594L4.57031 8.59375H7.22656Z" fill="#ED4C5C"/>
<path d="M23.9844 10.1562H14.8438V1.01562C14.1016 0.859375 13.3203 0.78125 12.5 0.78125C11.6797 0.78125 10.8984 0.859375 10.1562 1.01562V10.1562H1.01562C0.859375 10.8984 0.78125 11.6797 0.78125 12.5C0.78125 13.3203 0.859375 14.1016 1.01562 14.8438H10.1562V23.9844C10.8984 24.1406 11.6797 24.2188 12.5 24.2188C13.3203 24.2188 14.1016 24.1406 14.8438 23.9844V14.8438H23.9844C24.1406 14.1016 24.2188 13.3203 24.2188 12.5C24.2188 11.6797 24.1406 10.8984 23.9844 10.1562Z" fill="#ED4C5C"/>
</svg>
