<svg width="25" height="25" viewBox="0 0 25 25" fill="none" xmlns="http://www.w3.org/2000/svg">
<path d="M0.742188 12.5C0.742188 17.6172 4.02344 21.9531 8.55469 23.5547V1.44531C4.02344 3.04688 0.742188 7.38281 0.742188 12.5Z" fill="#428BC1"/>
<path d="M24.1797 12.5C24.1797 7.38281 20.9375 3.04688 16.3672 1.44531V23.5547C20.9375 21.9531 24.1797 17.6172 24.1797 12.5Z" fill="#ED4C5C"/>
<path d="M8.55469 23.5547C9.76562 23.9844 11.0937 24.2188 12.4609 24.2188C13.8281 24.2188 15.1563 23.9844 16.3672 23.5547V1.44531C15.1563 1.01563 13.8672 0.78125 12.4609 0.78125C11.0547 0.78125 9.76562 1.01563 8.55469 1.44531V23.5547Z" fill="white"/>
</svg>
