<svg width="23" height="23" viewBox="0 0 23 23" fill="none" xmlns="http://www.w3.org/2000/svg">
<g clip-path="url(#clip0_89_434)">
<path d="M22.7757 11.7649C22.7757 10.9831 22.7124 10.1972 22.5771 9.4281H11.73V13.8565H17.9416C17.6839 15.2848 16.8557 16.5483 15.6429 17.3511V20.2245H19.3488C21.525 18.2216 22.7757 15.2637 22.7757 11.7649Z" fill="#4285F4"/>
<path d="M11.7299 23.0008C14.8315 23.0008 17.4472 21.9824 19.3529 20.2246L15.6471 17.3512C14.616 18.0526 13.285 18.4498 11.7342 18.4498C8.73398 18.4498 6.19016 16.4258 5.27743 13.7045H1.45325V16.6666C3.40548 20.55 7.38178 23.0008 11.7299 23.0008Z" fill="#34A853"/>
<path d="M5.27325 13.7045C4.79153 12.2762 4.79153 10.7296 5.27325 9.30139V6.33923H1.45329C-0.177791 9.58873 -0.177791 13.4171 1.45329 16.6666L5.27325 13.7045Z" fill="#FBBC04"/>
<path d="M11.7299 4.55176C13.3695 4.5264 14.9541 5.14334 16.1415 6.27581L19.4248 2.99251C17.3458 1.04028 14.5864 -0.0330299 11.7299 0.000774972C7.38178 0.000774972 3.40548 2.45163 1.45325 6.33919L5.2732 9.30134C6.18171 6.57583 8.72975 4.55176 11.7299 4.55176Z" fill="#EA4335"/>
</g>
<defs>
<clipPath id="clip0_89_434">
<rect width="23" height="23" fill="white"/>
</clipPath>
</defs>
</svg>
