<svg width="25" height="25" viewBox="0 0 25 25" fill="none" xmlns="http://www.w3.org/2000/svg">
<path d="M12.5 24.2188C18.9721 24.2188 24.2188 18.9721 24.2188 12.5C24.2188 6.02791 18.9721 0.78125 12.5 0.78125C6.02791 0.78125 0.78125 6.02791 0.78125 12.5C0.78125 18.9721 6.02791 24.2188 12.5 24.2188Z" fill="#F5F5F5"/>
<path d="M9.14062 13.164C10.2344 13.9062 11.7578 13.5937 12.5 12.5C13.2422 11.4062 14.7266 11.0937 15.8594 11.8359C16.9141 12.539 17.2266 13.9062 16.6406 14.9609C17.9297 12.7734 17.3437 9.92185 15.1562 8.47654C12.9297 6.99217 9.92187 7.5781 8.4375 9.80467C8.39843 9.88279 8.35937 9.96092 8.32031 9.99998C7.77343 11.1328 8.125 12.4609 9.14062 13.164Z" fill="#ED4C5C"/>
<path d="M16.5234 15.1953C16.5625 15.1172 16.6016 15.0391 16.6406 15C16.6016 15.0391 16.5625 15.1172 16.5234 15.1953Z" fill="#003478"/>
<path d="M15.8594 11.8359C14.7656 11.0937 13.2422 11.4062 12.5 12.5C11.7578 13.5938 10.2734 13.9063 9.14063 13.1641C8.08594 12.4609 7.77344 11.0938 8.35938 10.0391C7.03125 12.2266 7.65625 15.0781 9.84375 16.5234C12.0703 18.0078 15.0781 17.4219 16.5625 15.1953C16.6016 15.1172 16.6406 15.0391 16.6797 15C17.2266 13.8672 16.875 12.5391 15.8594 11.8359Z" fill="#428BC1"/>
<path d="M3.04688 9.10156L5.74219 5.07812L5.46875 4.88281L5.19531 4.72656L2.5 8.75L2.77344 8.90625L3.04688 9.10156ZM3.78906 9.60937L4.0625 9.76562L6.71875 5.74219L6.48438 5.58594L6.21094 5.39062L3.51562 9.41406L3.78906 9.60937ZM7.1875 6.05469L4.53125 10.0781L4.80469 10.2734L5.07813 10.4297L7.73438 6.40625L7.46094 6.25L7.1875 6.05469ZM18.9453 16.6016L19.2188 16.7969L20.4688 14.9219L20.1953 14.7266L19.9219 14.5703L18.6719 16.4453L18.9453 16.6016ZM21.9531 15.8984L20.7031 17.7734L20.9766 17.9688L21.25 18.125L22.5 16.25L22.2266 16.0937L21.9531 15.8984ZM20.2344 17.4609L21.4844 15.5859L21.2109 15.3906L20.9375 15.2344L19.6875 17.1094L19.9609 17.2656L20.2344 17.4609ZM18.7891 16.875L18.5156 16.7187L17.2656 18.5937L17.5391 18.75L17.8125 18.9453L19.0625 17.0703L18.7891 16.875ZM19.7656 17.5391L19.5312 17.3828L18.2812 19.2578L18.5156 19.4141L18.7891 19.6094L20.0391 17.7344L19.7656 17.5391ZM20.5078 18.0469L19.2578 19.9219L19.5312 20.1172L19.8047 20.2734L21.0547 18.3984L20.7813 18.2031L20.5078 18.0469ZM2.77344 16.0937L2.5 16.25L5.19531 20.2734L5.46875 20.1172L5.74219 19.9219L3.04688 15.8984L2.77344 16.0937ZM5.23438 17.5391L4.96094 17.7344L6.21094 19.6094L6.48438 19.4141L6.71875 19.2578L5.46875 17.3828L5.23438 17.5391ZM4.80469 14.7266L4.53125 14.9219L7.1875 18.9453L7.46094 18.75L7.73438 18.5937L5.07813 14.5703L4.80469 14.7266ZM3.51562 15.5859L4.76562 17.4609L5.03906 17.2656L5.3125 17.1094L4.0625 15.2344L3.78906 15.3906L3.51562 15.5859ZM20.7813 6.79687L21.0547 6.60156L19.8047 4.72656L19.5312 4.88281L19.2578 5.07812L20.5078 6.95312L20.7813 6.79687ZM18.7891 8.125L19.0625 7.92969L17.8125 6.05469L17.5391 6.25L17.2656 6.40625L18.5156 8.28125L18.7891 8.125ZM20.7031 7.22656L21.9531 9.10156L22.2266 8.90625L22.5 8.75L21.25 6.875L20.9766 7.03125L20.7031 7.22656ZM21.2109 9.60937L21.4844 9.41406L18.7891 5.39062L18.5156 5.58594L18.2812 5.74219L20.9375 9.76562L21.2109 9.60937ZM20.1953 10.2734L20.4688 10.0781L19.2188 8.20312L18.9453 8.39844L18.6719 8.55469L19.9219 10.4297L20.1953 10.2734Z" fill="#3E4347"/>
</svg>
