<svg width="25" height="25" viewBox="0 0 25 25" fill="none" xmlns="http://www.w3.org/2000/svg">
<path d="M0.78125 12.5C0.78125 14.8047 1.44531 16.9531 2.57812 18.75H22.3828C23.5156 16.9531 24.1797 14.8047 24.1797 12.5C24.1797 10.1953 23.5156 8.04688 22.3828 6.25H2.57812C1.44531 8.04688 0.78125 10.1953 0.78125 12.5Z" fill="#FFCE31"/>
<path d="M22.4219 6.25C20.3516 2.96875 16.6797 0.78125 12.5 0.78125C8.32031 0.78125 4.64844 2.96875 2.57812 6.25H22.4219ZM2.57812 18.75C4.64844 22.0312 8.32031 24.2188 12.5 24.2188C16.6797 24.2188 20.3516 22.0312 22.4219 18.75H2.57812Z" fill="#ED4C5C"/>
<path d="M3.59375 11.2109H4.84375V11.9141H3.59375V11.2109ZM3.59375 16.3672H4.88281V17.0312H3.59375V16.3672Z" fill="#C8B100"/>
<path d="M3.47656 15.2734C3.35938 15.3516 3.28125 15.4297 3.28125 15.4688C3.28125 15.5078 3.32031 15.5469 3.39844 15.5859C3.47656 15.625 3.55469 15.7031 3.51563 15.7813C3.59375 15.7031 3.63281 15.625 3.63281 15.5469C3.63281 15.4297 3.55469 15.3125 3.47656 15.2734Z" fill="#ED4C5C"/>
<path d="M3.78906 11.9141H4.6875V16.3672H3.78906V11.9141Z" fill="white"/>
<path d="M5.625 13.5547C5.42969 13.4766 5.07813 13.3984 4.6875 13.3984C4.57032 13.3984 4.41407 13.3984 4.25782 13.4375C3.71094 13.5156 3.28125 13.75 3.32032 13.9062L3.125 13.4766C3.08594 13.2812 3.55469 13.0469 4.14063 12.9297C4.33594 12.8906 4.53125 12.8906 4.6875 12.8906C5.07813 12.8906 5.42969 12.9297 5.625 13.0078V13.5547Z" fill="#ED4C5C"/>
<path d="M3.78906 14.1406C3.55469 14.1406 3.35938 14.0625 3.35938 13.9453C3.35938 13.8672 3.4375 13.75 3.59375 13.6719H3.82812L3.78906 14.1406ZM4.6875 13.7891C4.84375 13.8281 4.96094 13.8672 5.03906 13.9062C5.07812 13.9453 4.92187 14.1016 4.6875 14.2188V13.7891Z" fill="#ED4C5C"/>
<path d="M3.20312 15C3.16406 14.9219 3.4375 14.7656 3.78906 14.6484C3.94531 14.6094 4.0625 14.5313 4.25781 14.4531C4.72656 14.2578 5.11719 13.9844 5.03906 13.9062L5.11719 14.375C5.15625 14.4531 4.84375 14.6875 4.375 14.9219C4.21875 15 3.94531 15.1172 3.78906 15.1563C3.51562 15.2344 3.28125 15.3906 3.28125 15.4297L3.20312 15Z" fill="#ED4C5C"/>
<path d="M11.9922 11.2109H13.2422V11.9141H11.9922V11.2109ZM11.9531 16.3672H13.2422V17.0312H11.9531V16.3672Z" fill="#C8B100"/>
<path d="M13.3594 15.2734C13.4766 15.3516 13.5547 15.4297 13.5547 15.4688C13.5547 15.5078 13.5156 15.5469 13.4375 15.5859C13.3594 15.6641 13.2812 15.7813 13.3203 15.8203C13.2422 15.7422 13.2031 15.6641 13.2031 15.5859C13.2031 15.4297 13.2813 15.3125 13.3594 15.2734Z" fill="#ED4C5C"/>
<path d="M12.1484 11.9141H13.0469V16.3672H12.1484V11.9141Z" fill="white"/>
<path d="M11.2109 13.5547C11.4062 13.4766 11.7578 13.3984 12.1484 13.3984C12.2656 13.3984 12.4219 13.3984 12.5781 13.4375C13.125 13.5156 13.5547 13.75 13.5156 13.9062L13.7109 13.4375C13.75 13.2422 13.2812 13.0078 12.6953 12.8906H12.1484C11.7578 12.8906 11.4062 12.9297 11.2109 13.0078V13.5547Z" fill="#ED4C5C"/>
<path d="M13.0469 14.1406C13.2813 14.1406 13.4766 14.0625 13.4766 13.9453C13.4766 13.8672 13.3984 13.75 13.2422 13.6719H13.0078L13.0469 14.1406ZM12.1484 13.7891C11.9922 13.8281 11.875 13.8672 11.7969 13.9062C11.7578 13.9453 11.9141 14.1016 12.1484 14.2188V13.7891Z" fill="#ED4C5C"/>
<path d="M13.6328 15C13.6719 14.9219 13.3984 14.7656 13.0469 14.6484C12.8906 14.6094 12.7734 14.5312 12.5781 14.4531C12.1094 14.2578 11.7187 13.9844 11.7969 13.9062L11.7187 14.375C11.6797 14.4531 11.9922 14.6875 12.4609 14.9219C12.6172 15 12.8906 15.1172 13.0469 15.1562C13.3203 15.2344 13.5547 15.4297 13.5156 15.4687L13.6328 15ZM8.39844 8.71094C9.14062 8.71094 10.6641 8.86719 11.2109 9.41406C10.625 10.8203 9.6875 10.2344 8.39844 10.2344C7.14844 10.2344 6.17187 10.8203 5.58594 9.41406C6.13281 8.86719 7.61719 8.71094 8.39844 8.71094Z" fill="#ED4C5C"/>
<path d="M10.3125 10.2734C9.84375 10 9.14063 9.96094 8.39844 9.96094C7.65625 9.96094 6.95313 10.0391 6.48438 10.2734L6.64063 10.9375C7.07031 11.0547 7.69531 11.1328 8.39844 11.1328C9.10156 11.1328 9.6875 11.0547 10.1563 10.9375L10.3125 10.2734ZM10.9766 8.59375C10.8203 8.47656 10.5078 8.35937 10.2344 8.35937C10.1172 8.35937 10 8.35938 9.88281 8.39844C9.88281 8.39844 9.64844 8.08594 9.10156 8.08594C8.90625 8.08594 8.75 8.125 8.59375 8.20312V8.16406C8.55469 8.08594 8.47656 8.00781 8.39844 8.00781C8.32031 8.00781 8.20313 8.125 8.20313 8.20312V8.24219C8.04688 8.16406 7.89063 8.125 7.69531 8.125C7.14844 8.125 6.91406 8.47656 6.91406 8.4375C6.79688 8.39844 6.67969 8.39844 6.5625 8.39844C4.76562 8.39844 5.66406 9.60938 5.66406 9.60938L5.85938 9.375C5.42969 8.82812 5.82031 8.51562 6.60156 8.51562C6.71875 8.51562 6.79688 8.51562 6.875 8.55469C6.60156 8.94531 7.10938 9.29687 7.10938 9.29687L7.22656 9.10156C6.95313 8.90625 6.91406 8.24219 7.69531 8.24219C7.89063 8.24219 8.04688 8.28125 8.20313 8.39844C8.20313 8.4375 8.16406 8.98438 8.125 9.0625L8.4375 9.33594L8.75 9.0625C8.71094 8.94531 8.67188 8.4375 8.67188 8.39844C8.78906 8.32031 8.98438 8.24219 9.17969 8.24219C10 8.24219 10 8.90625 9.64844 9.10156L9.76563 9.29687C9.76563 9.29687 10.1953 8.94531 10 8.55469C10.0781 8.55469 10.1953 8.51562 10.2734 8.51562C11.2109 8.51562 11.25 9.21875 11.0156 9.375L11.1719 9.60938C11.0938 9.60938 11.5234 9.0625 10.9766 8.59375Z" fill="#C8B100"/>
<path d="M8.16406 7.85156C8.16406 7.73438 8.28125 7.61719 8.39844 7.61719C8.55469 7.61719 8.63281 7.73438 8.63281 7.85156C8.63281 7.96875 8.51562 8.08594 8.39844 8.08594C8.28125 8.08594 8.16406 7.96875 8.16406 7.85156Z" fill="#005BBF"/>
<path d="M8.32031 7.1875V7.30469H8.20313V7.42188H8.32031V7.8125H8.16406V7.92969H8.63281L8.67188 7.85156L8.63281 7.8125H8.47656V7.42188H8.59375V7.30469H8.47656V7.1875H8.32031Z" fill="#C8B100"/>
<path d="M8.39844 11.0547C7.77344 11.0547 7.22656 10.9766 6.79688 10.8594C7.22656 10.7422 7.77344 10.6641 8.39844 10.6641C9.02344 10.6641 9.57031 10.7422 10 10.8594C9.60938 10.9766 9.02344 11.0547 8.39844 11.0547Z" fill="#ED4C5C"/>
<path d="M8.4375 17.8125C7.69531 17.8125 6.99219 17.6172 6.36719 17.3438C5.89844 17.1094 5.625 16.6797 5.625 16.1719V14.2969H11.25V16.1719C11.25 16.6797 10.9375 17.1484 10.5078 17.3438C9.88281 17.6563 9.17969 17.8125 8.4375 17.8125ZM8.39844 11.1719H11.2109V14.2969H8.39844V11.1719Z" fill="white"/>
<path d="M8.4375 16.1719C8.4375 16.9141 7.8125 17.5 7.03125 17.5C6.25 17.5 5.625 16.9141 5.625 16.1719V14.2969H8.4375V16.1719Z" fill="#ED4C5C"/>
<path d="M6.21094 17.2656C6.28906 17.3047 6.40625 17.3828 6.5625 17.4219V14.2188H6.25L6.21094 17.2656ZM5.58594 16.1328C5.58594 16.5234 5.74219 16.8359 5.89844 16.9922V14.2188H5.58594V16.1328Z" fill="#C8B100"/>
<path d="M6.83594 17.5H7.14844V14.2188H6.83594V17.5Z" fill="#C7B500"/>
<path d="M7.46094 17.4219C7.57813 17.3828 7.73437 17.3047 7.8125 17.2656V14.2188H7.5L7.46094 17.4219Z" fill="#C8B100"/>
<path d="M5.58594 11.1719H8.39844V14.2969H5.58594V11.1719Z" fill="#ED4C5C"/>
<path d="M8.125 16.9922C8.28125 16.875 8.39844 16.6016 8.4375 16.2891V14.2578H8.125V16.9922Z" fill="#C8B100"/>
<path d="M11.25 14.2969V16.1719C11.25 16.9141 10.625 17.5 9.84375 17.5C9.0625 17.5 8.4375 16.9141 8.4375 16.1719V14.2969H11.25ZM10.2344 11.7188C10.3516 11.9532 10.3516 12.5391 10 12.4219C10.0781 12.461 10.1172 12.7344 10.2344 12.8907C10.4297 13.125 10.6641 12.9297 10.625 12.6563C10.5469 12.2266 10.5859 11.9532 10.6641 11.5235C10.6641 11.5625 10.8594 11.5625 10.9375 11.4844C10.8984 11.6016 10.8594 11.7578 10.9375 11.7578C10.8594 11.875 10.6641 12.0703 10.625 12.1875C10.5859 12.461 11.0156 12.9688 10.5469 13.086C10.2344 13.1641 10.4297 13.3985 10.5469 13.5157C10.5469 13.5157 10.3906 14.0235 10.4688 13.9844C10.1562 14.1016 10.2344 13.8282 10.2344 13.8282C10.3906 13.3594 9.96094 13.3203 10 13.2422C9.60938 13.2032 10.0391 13.5938 9.6875 13.5938C9.60938 13.5938 9.45313 13.6719 9.45313 13.6719C9.02344 13.6328 9.25781 13.2422 9.41406 13.2813C9.53125 13.3203 9.64844 13.5157 9.64844 13.2422C9.64844 13.2422 9.45313 12.9297 9.96094 12.9297C9.76563 12.9297 9.64844 12.7735 9.57031 12.5782C9.49219 12.6172 9.375 12.8125 8.94531 12.8516C8.94531 12.8516 8.82813 12.4219 8.94531 12.5C9.10156 12.5782 9.17969 12.5782 9.33594 12.4219C9.25781 12.3047 8.78906 12.1485 8.86719 11.875C8.86719 11.7969 9.10156 11.6797 9.10156 11.6797C9.0625 11.875 9.17969 12.0703 9.41406 12.0703C9.72656 12.1094 9.60938 11.9922 9.64844 11.9141C9.6875 11.836 9.92188 11.9532 9.84375 11.7578C9.84375 11.7188 9.57031 11.6797 9.64844 11.5625C9.80469 11.3672 10.0391 11.5235 10.2344 11.7188ZM8.4375 17.4219L8.35938 17.2266L8.4375 16.9922L8.51562 17.2266L8.4375 17.4219Z" fill="#ED4C5C"/>
<path d="M6.44531 11.8359V12.0312H6.52344V12.1875H6.32813V12.5781H6.44531V13.4375H6.21094V13.8672H7.8125V13.4375H7.61719V12.5781H7.69531V12.1875H7.5V12.0312H7.61719V11.8359H7.22656V12.0312H7.30469V12.1875H7.10938V11.7187H7.22656V11.5234H6.79688V11.7187H6.91406V12.1875H6.71875V12.0312H6.79688V11.8359H6.44531ZM10.8594 16.6406V14.6875H8.82813V16.6406L9.76563 17.0703H9.88281L10.8594 16.6406ZM9.76563 14.8437V15.5078L9.10156 14.8437H9.76563ZM8.94531 14.8828L9.72656 15.6641L8.94531 16.4453V14.8828ZM9.02344 16.6016L9.76563 15.8594V16.9531L9.02344 16.6016ZM9.88281 16.9141V15.8203L10.625 16.5625L9.88281 16.9141ZM10.7031 16.4453L9.92188 15.6641L10.7031 14.8828V16.4453ZM9.88281 14.8437H10.5469L9.88281 15.5078V14.8437Z" fill="#C8B100"/>
<path d="M7.5 14.2578C7.5 13.6719 7.89062 13.2422 8.39844 13.2422C8.90625 13.2422 9.29687 13.7109 9.29687 14.2578C9.29687 14.8047 8.90625 15.2734 8.39844 15.2734C7.89062 15.2734 7.5 14.8437 7.5 14.2578Z" fill="#ED4C5C"/>
<path d="M7.77344 14.2578C7.77344 13.8281 8.04688 13.5156 8.39844 13.5156C8.75 13.5156 9.02344 13.8672 9.02344 14.2578C9.02344 14.6875 8.75 15 8.39844 15C8.08594 15.0391 7.77344 14.6875 7.77344 14.2578Z" fill="#005BBF"/>
<path d="M8.125 13.75L7.96875 14.1797L8.08594 14.2187L8.00781 14.375H8.24219L8.16406 14.2187L8.28125 14.1797L8.125 13.75ZM8.71094 13.75L8.55469 14.1797L8.67188 14.2187L8.59375 14.375H8.82813L8.78906 14.2187L8.90625 14.1797L8.71094 13.75ZM8.4375 14.2578L8.24219 14.6875L8.35938 14.7266L8.32031 14.8828H8.51562L8.47656 14.7266L8.59375 14.6875L8.4375 14.2578Z" fill="#C8B100"/>
</svg>
