<svg width="51" height="51" viewBox="0 0 51 51" fill="none" xmlns="http://www.w3.org/2000/svg">
<path d="M51.0064 25.5069C51.0064 39.5944 39.5874 51.0149 25.5002 51.0149C11.4122 51.0149 -0.00753784 39.5944 -0.00753784 25.5069C-0.00774184 11.4197 11.412 0 25.5 0C39.5874 0 51.0064 11.4197 51.0064 25.5069Z" fill="#E5B560"/>
<path d="M42.9122 9.74755C42.7325 9.75877 42.5975 9.801 42.4122 9.92564C38.6774 12.5179 29.9531 18.9529 25.8646 22.2091L22.4949 27.7373C21.949 32.0401 20.9449 42.1491 20.6652 46.9453C20.6532 47.1913 20.683 47.4341 20.7676 47.594C21.0161 48.0639 21.5991 48.2444 22.0698 47.9951C22.3031 47.8719 22.4612 47.6803 22.5618 47.3543C22.8335 46.4661 25.4713 35.2641 25.4713 35.2641C26.569 30.9648 27.4894 28.9093 28.4766 27.3648C29.6735 25.4923 31.6569 23.5031 34.0439 21.081C34.0439 21.081 43.1613 11.9716 43.6952 11.3379C43.8653 11.1254 43.9475 10.9087 43.9308 10.6452C43.8982 10.1158 43.4412 9.7141 42.9122 9.74755Z" fill="white"/>
<path d="M13.3598 21.8953C13.3318 21.8537 13.3079 21.8131 13.2839 21.7715C12.8653 22.4602 11.8859 24.395 11.2771 25.6589C10.4112 23.9278 9.13778 21.5624 8.91644 21.1822C8.89482 21.1438 8.85565 21.0863 8.82464 21.0545C8.68327 20.9051 8.46683 20.8386 8.25263 20.8884C7.99538 20.949 7.81954 21.1485 7.79016 21.4035C7.78139 21.4722 7.78608 21.5577 7.80852 21.6487C7.93867 22.2334 9.87198 27.8207 10.3273 28.8048C10.5519 29.305 11.067 29.4968 11.5839 29.3754C11.7965 29.3275 11.9289 29.2563 12.1239 29.0806C12.1735 29.0366 12.2423 28.9729 12.3557 28.8417C13.0173 28.0878 15.147 25.2981 16.0352 24.1691C15.9067 24.082 15.7766 23.9949 15.6486 23.9056C14.7345 23.2717 13.8255 22.6216 13.3598 21.8953Z" fill="white"/>
<path d="M12.4099 20.5011C12.5203 20.497 14.9344 20.415 14.9344 20.415L15.0254 19.2943C15.0254 19.2943 14.8171 19.2773 14.2904 19.2261C13.8414 19.1831 13.538 18.9915 13.3079 18.7094C13.2041 18.5823 13.1137 18.4393 13.0331 18.2796C12.9493 18.1127 12.8559 17.9258 12.76 17.7365C12.6307 17.4768 12.6649 17.313 12.7096 17.1884C12.7535 17.0694 12.8351 16.9319 13.2112 16.7404C13.86 16.4113 14.2282 16.2226 14.5319 16.0692C14.698 15.9846 14.7221 15.8936 14.7347 15.7689C14.7578 15.5274 14.555 15.1951 14.2673 14.863C13.9342 14.4762 13.7296 14.2901 13.2041 14.0849C12.6625 13.8734 12.2775 14.0117 11.2245 14.5468C10.0788 15.1286 9.80322 15.387 9.66185 16.0741C9.5013 16.8491 9.58678 17.5152 10.066 18.4674C10.9999 20.323 11.8347 20.5154 12.4099 20.5011Z" fill="white"/>
<path d="M24.8729 21.4831C24.8729 21.4831 23.6595 20.6834 23.55 20.6147C23.4965 20.5796 23.1612 20.3703 23.0492 20.2999C22.1505 19.7487 20.8076 19.2407 20.8076 19.2407L17.5067 24.6084C17.5067 24.6084 18.697 25.6076 19.5118 26.1072C19.8425 26.3091 19.9241 26.3548 20.0599 26.434C20.1128 26.4658 21.3966 27.1879 21.3966 27.1879" fill="white"/>
<path d="M18.368 18.849C18.729 18.9786 19.103 18.992 19.4528 18.9129C19.6213 18.8745 19.7835 18.815 19.9353 18.734C20.0701 18.6622 20.5359 18.3737 21.1446 17.9767C22.6218 17.0165 24.9537 15.4492 25.5641 14.9826C26.9237 14.3723 31.7224 11.7959 32.2267 11.4508C32.3191 11.3835 32.3766 11.3269 32.4231 11.2566C32.5606 11.0448 32.5686 10.7627 32.4185 10.5391C32.2859 10.3426 32.0637 10.2386 31.8415 10.2545C31.7977 10.2578 31.7522 10.268 31.6786 10.2896C30.8087 10.555 19.9192 14.3831 18.4991 15.0844C17.8217 15.4186 17.6546 15.6022 17.5165 15.7717C17.3767 15.941 17.2625 16.1358 17.1858 16.3531C16.8227 17.3696 17.3516 18.4865 18.368 18.849Z" fill="white"/>
</svg>
